<svg xmlns="http://www.w3.org/2000/svg" width="53.656" height="53.656" viewBox="0 0 53.656 53.656">
  <g id="Icon_ionic-ios-add-circle-outline" data-name="Icon ionic-ios-add-circle-outline" transform="translate(-3.375 -3.375)">
    <path id="Path_59" data-name="Path 59" d="M35.921,22.185H26.312V12.575a2.064,2.064,0,0,0-4.127,0v9.609H12.575a1.977,1.977,0,0,0-2.064,2.064,2,2,0,0,0,2.064,2.064h9.609v9.609a2,2,0,0,0,2.064,2.064,2.053,2.053,0,0,0,2.064-2.064V26.312h9.609a2.064,2.064,0,1,0,0-4.127Z" transform="translate(5.955 5.955)" fill="#fff"/>
    <path id="Path_60" data-name="Path 60" d="M30.2,6.986A23.22,23.22,0,0,1,46.622,46.622,23.22,23.22,0,0,1,13.784,13.784,23.063,23.063,0,0,1,30.2,6.986m0-3.611A26.828,26.828,0,1,0,57.031,30.2,26.824,26.824,0,0,0,30.2,3.375Z" fill="#fff"/>
  </g>
</svg>
