<svg xmlns="http://www.w3.org/2000/svg" width="17.934" height="17.934" viewBox="0 0 17.934 17.934">
  <path id="Icon_awesome-coins" data-name="Icon awesome-coins" d="M0,14.2v1.5c0,1.236,3.012,2.242,6.725,2.242s6.725-1.005,6.725-2.242V14.2c-1.447,1.019-4.091,1.5-6.725,1.5S1.447,15.216,0,14.2ZM11.208,4.483c3.713,0,6.725-1.005,6.725-2.242S14.921,0,11.208,0,4.483,1.005,4.483,2.242,7.5,4.483,11.208,4.483ZM0,10.522v1.807c0,1.236,3.012,2.242,6.725,2.242s6.725-1.005,6.725-2.242V10.522C12,11.713,9.356,12.329,6.725,12.329S1.447,11.713,0,10.522Zm14.571.385c2.007-.389,3.363-1.11,3.363-1.94v-1.5A8.6,8.6,0,0,1,14.571,8.68ZM6.725,5.6C3.012,5.6,0,6.858,0,8.406s3.012,2.8,6.725,2.8,6.725-1.254,6.725-2.8S10.438,5.6,6.725,5.6Zm7.681,1.972c2.1-.378,3.527-1.121,3.527-1.972v-1.5A11.4,11.4,0,0,1,12.3,5.573,3.922,3.922,0,0,1,14.406,7.576Z" fill="#ff2e3c"/>
</svg>
